<svg width="177" height="184" viewBox="0 0 177 184" fill="none" xmlns="http://www.w3.org/2000/svg">
<g filter="url(#filter0_d_63_12)">
<path d="M4 30C4 13.4315 17.4315 0 34 0H143C159.569 0 173 13.4315 173 30V146C173 162.569 159.569 176 143 176H34C17.4315 176 4 162.569 4 146V30Z" fill="white" fill-opacity="0.6"/>
<path fill-rule="evenodd" clip-rule="evenodd" d="M37.75 65.5C37.75 59.2011 40.2522 53.1602 44.7062 48.7062C49.1602 44.2522 55.2011 41.75 61.5 41.75C67.7989 41.75 73.8398 44.2522 78.2938 48.7062C82.7478 53.1602 85.25 59.2011 85.25 65.5V79.155C85.25 80.365 85.255 81.63 84.95 82.765C84.5523 84.2479 83.7714 85.6001 82.6858 86.6858C81.6001 87.7714 80.2479 88.5523 78.765 88.95C77.63 89.255 76.365 89.25 75.155 89.25H61.5C55.2011 89.25 49.1602 86.7478 44.7062 82.2938C40.2522 77.8398 37.75 71.7989 37.75 65.5ZM61.5 49.25C57.1902 49.25 53.057 50.962 50.0095 54.0095C46.962 57.057 45.25 61.1902 45.25 65.5C45.25 69.8098 46.962 73.943 50.0095 76.9905C53.057 80.0379 57.1902 81.75 61.5 81.75H74.835C75.64 81.75 76.125 81.75 76.485 81.735C76.6021 81.7312 76.7189 81.7212 76.835 81.705C77.0427 81.6473 77.232 81.5369 77.3845 81.3845C77.5369 81.232 77.6473 81.0427 77.705 80.835C77.7212 80.7189 77.7312 80.6021 77.735 80.485C77.751 79.9352 77.756 79.385 77.75 78.835V65.5C77.75 61.1902 76.0379 57.057 72.9905 54.0095C69.943 50.962 65.8098 49.25 61.5 49.25ZM116.5 96.75C121.197 96.75 125.789 98.1429 129.695 100.753C133.6 103.362 136.645 107.072 138.442 111.411C140.24 115.751 140.71 120.526 139.794 125.133C138.877 129.74 136.615 133.972 133.294 137.294C129.972 140.615 125.74 142.877 121.133 143.794C116.526 144.71 111.751 144.24 107.411 142.442C103.072 140.645 99.3623 137.6 96.7526 133.695C94.1429 129.789 92.75 125.197 92.75 120.5V106.845C92.75 105.635 92.745 104.37 93.05 103.235C93.4477 101.752 94.2286 100.4 95.3142 99.3142C96.3999 98.2286 97.7521 97.4477 99.235 97.05C100.37 96.745 101.635 96.75 102.845 96.75H116.5ZM101.165 104.3C100.958 104.357 100.769 104.467 100.617 104.618C100.464 104.77 100.353 104.958 100.295 105.165C100.28 105.281 100.272 105.398 100.27 105.515C100.252 106.065 100.246 106.615 100.25 107.165V120.5C100.25 123.714 101.203 126.856 102.989 129.528C104.774 132.2 107.312 134.283 110.281 135.513C113.251 136.743 116.518 137.065 119.67 136.438C122.822 135.811 125.718 134.263 127.99 131.99C130.263 129.718 131.811 126.822 132.438 123.67C133.065 120.518 132.743 117.251 131.513 114.281C130.283 111.312 128.2 108.774 125.528 106.989C122.856 105.203 119.714 104.25 116.5 104.25H103.165C102.355 104.25 101.875 104.25 101.515 104.27C101.398 104.272 101.281 104.28 101.165 104.295V104.3ZM76.48 104.305C75.4876 104.251 74.4937 104.233 73.5 104.25H61.5C58.2861 104.25 55.1443 105.203 52.472 106.989C49.7997 108.774 47.7169 111.312 46.487 114.281C45.257 117.251 44.9352 120.518 45.5622 123.67C46.1893 126.822 47.7369 129.718 50.0095 131.99C52.2821 134.263 55.1776 135.811 58.3298 136.438C61.482 137.065 64.7493 136.743 67.7186 135.513C70.6879 134.283 73.2258 132.2 75.0114 129.528C76.797 126.856 77.75 123.714 77.75 120.5V108.5C77.75 107.04 77.75 106.165 77.695 105.52C77.6845 105.318 77.6544 105.117 77.605 104.92C77.4885 104.697 77.3073 104.514 77.085 104.395C76.8867 104.346 76.6841 104.316 76.48 104.305ZM77.09 96.83C78.155 96.92 79.32 97.115 80.47 97.705C82.12 98.54 83.46 99.88 84.295 101.525C84.885 102.675 85.085 103.845 85.17 104.91C85.25 105.9 85.25 107.08 85.25 108.37V120.5C85.25 125.197 83.8571 129.789 81.2474 133.695C78.6377 137.6 74.9285 140.645 70.5887 142.442C66.249 144.24 61.4737 144.71 56.8666 143.794C52.2596 142.877 48.0277 140.615 44.7062 137.294C41.3847 133.972 39.1227 129.74 38.2063 125.133C37.2899 120.526 37.7603 115.751 39.5579 111.411C41.3554 107.072 44.3995 103.362 48.3052 100.753C52.2109 98.1429 56.8027 96.75 61.5 96.75H73.63C74.92 96.75 76.1 96.75 77.09 96.83ZM92.75 65.5C92.75 60.8027 94.1429 56.2109 96.7526 52.3052C99.3623 48.3995 103.072 45.3554 107.411 43.5579C111.751 41.7603 116.526 41.2899 121.133 42.2063C125.74 43.1227 129.972 45.3847 133.294 48.7062C136.615 52.0277 138.877 56.2596 139.794 60.8666C140.71 65.4736 140.24 70.249 138.442 74.5887C136.645 78.9285 133.6 82.6377 129.695 85.2474C125.789 87.8571 121.197 89.25 116.5 89.25H102.075C101.555 89.25 101.015 89.25 100.525 89.195C98.5544 88.9741 96.7173 88.0904 95.3147 86.6887C93.9121 85.287 93.0272 83.4504 92.805 81.48C92.7581 80.9631 92.7398 80.444 92.75 79.925V65.5ZM116.5 49.25C112.19 49.25 108.057 50.962 105.01 54.0095C101.962 57.057 100.25 61.1902 100.25 65.5V80.495L100.26 80.645C100.297 80.9499 100.445 81.2305 100.675 81.4334C100.906 81.6363 101.203 81.7472 101.51 81.745L102.21 81.75H116.5C120.81 81.75 124.943 80.0379 127.99 76.9905C131.038 73.943 132.75 69.8098 132.75 65.5C132.75 61.1902 131.038 57.057 127.99 54.0095C124.943 50.962 120.81 49.25 116.5 49.25Z" fill="#864C02"/>
</g>
<defs>
<filter id="filter0_d_63_12" x="0" y="0" width="177" height="184" filterUnits="userSpaceOnUse" color-interpolation-filters="sRGB">
<feFlood flood-opacity="0" result="BackgroundImageFix"/>
<feColorMatrix in="SourceAlpha" type="matrix" values="0 0 0 0 0 0 0 0 0 0 0 0 0 0 0 0 0 0 127 0" result="hardAlpha"/>
<feOffset dy="4"/>
<feGaussianBlur stdDeviation="2"/>
<feComposite in2="hardAlpha" operator="out"/>
<feColorMatrix type="matrix" values="0 0 0 0 0 0 0 0 0 0 0 0 0 0 0 0 0 0 0.25 0"/>
<feBlend mode="normal" in2="BackgroundImageFix" result="effect1_dropShadow_63_12"/>
<feBlend mode="normal" in="SourceGraphic" in2="effect1_dropShadow_63_12" result="shape"/>
</filter>
</defs>
</svg>
